<svg xmlns="http://www.w3.org/2000/svg" xmlns:xlink="http://www.w3.org/1999/xlink" width="3000" zoomAndPan="magnify" viewBox="0 0 2250 2250.000011" height="3000" preserveAspectRatio="xMidYMid meet" version="1.0"><defs><clipPath id="eab1eb55c3"><path d="M 0.5 0 L 2249.5 0 L 2249.5 2249 L 0.5 2249 Z M 0.5 0 " clip-rule="nonzero"/></clipPath><clipPath id="6aafb1294e"><path d="M 0.5 0 L 2249.5 0 L 2249.5 2249 L 0.5 2249 Z M 0.5 0 " clip-rule="nonzero"/></clipPath><clipPath id="2275e7c120"><path d="M -312.070312 1643.144531 L 368.082031 -692.507812 L 4266.355469 442.6875 L 3586.203125 2778.339844 Z M -312.070312 1643.144531 " clip-rule="nonzero"/></clipPath><clipPath id="33cb7b6e4d"><path d="M 368 0 L 2249.5 0 L 2249.5 2249 L 368 2249 Z M 368 0 " clip-rule="nonzero"/></clipPath><clipPath id="4f3f3e3d9a"><path d="M -312.070312 1643.144531 L 368.082031 -692.507812 L 4266.355469 442.6875 L 3586.203125 2778.339844 Z M -312.070312 1643.144531 " clip-rule="nonzero"/></clipPath><clipPath id="f5a0eb2541"><path d="M 329.367188 -559.5625 L -312.007812 1642.929688 L 2212.222656 2377.996094 L 2853.601562 175.503906 Z M 329.367188 -559.5625 " clip-rule="nonzero"/></clipPath><clipPath id="69119ddf3f"><path d="M 368.148438 -692.734375 L -312.003906 1642.917969 L 3586.269531 2778.113281 L 4266.421875 442.460938 Z M 368.148438 -692.734375 " clip-rule="nonzero"/></clipPath><clipPath id="bddbc7a453"><rect x="0" width="2250" y="0" height="2249"/></clipPath><clipPath id="9ac27c927b"><path d="M 263 705 L 2249.5 705 L 2249.5 2249 L 263 2249 Z M 263 705 " clip-rule="nonzero"/></clipPath><clipPath id="2e1420fbba"><path d="M 2 1 L 1832 1 L 1832 1544 L 2 1544 Z M 2 1 " clip-rule="nonzero"/></clipPath><clipPath id="842ca780ac"><path d="M 2.03125 287.925781 L 1353.539062 1.789062 L 1831.195312 2257.882812 L 479.6875 2544.019531 Z M 2.03125 287.925781 " clip-rule="nonzero"/></clipPath><clipPath id="468972f75a"><path d="M 477 0.726562 L 1829.289062 0.726562 L 1829.289062 1543 L 477 1543 Z M 477 0.726562 " clip-rule="nonzero"/></clipPath><clipPath id="1fcc0d8215"><path d="M 0.03125 286.925781 L 1351.539062 0.789062 L 1829.195312 2256.882812 L 477.6875 2543.019531 Z M 0.03125 286.925781 " clip-rule="nonzero"/></clipPath><clipPath id="54f2cdb8a2"><path d="M 1352.242188 0.640625 L 0.734375 286.777344 L 478.390625 2542.871094 L 1829.898438 2256.734375 Z M 1352.242188 0.640625 " clip-rule="nonzero"/></clipPath><clipPath id="e8cd8e1c6c"><rect x="0" width="1830" y="0" height="1543"/></clipPath><clipPath id="f29c643924"><path d="M 334 2 L 1986.5 2 L 1986.5 1544 L 334 1544 Z M 334 2 " clip-rule="nonzero"/></clipPath><clipPath id="14b0716e64"><path d="M 334.707031 942.816406 L 1346.417969 2.132812 L 2916.71875 1690.996094 L 1905.007812 2631.683594 Z M 334.707031 942.816406 " clip-rule="nonzero"/></clipPath><clipPath id="aaa92d96df"><path d="M 1013 0 L 1652.5 0 L 1652.5 1542 L 1013 1542 Z M 1013 0 " clip-rule="nonzero"/></clipPath><clipPath id="611273bb8d"><path d="M 0.707031 940.816406 L 1012.417969 0.132812 L 2582.71875 1688.996094 L 1571.007812 2629.683594 Z M 0.707031 940.816406 " clip-rule="nonzero"/></clipPath><clipPath id="66b0913332"><path d="M 1012.945312 -0.359375 L 1.234375 940.328125 L 1571.539062 2629.191406 L 2583.246094 1688.503906 Z M 1012.945312 -0.359375 " clip-rule="nonzero"/></clipPath><clipPath id="4918b209f2"><rect x="0" width="1653" y="0" height="1542"/></clipPath><clipPath id="ed6fb6cb94"><rect x="0" width="1987" y="0" height="1544"/></clipPath><clipPath id="c516f7f9d8"><path d="M 0.5 168 L 1804 168 L 1804 2249 L 0.5 2249 Z M 0.5 168 " clip-rule="nonzero"/></clipPath><clipPath id="83920fe04f"><path d="M 0.5 2 L 1569 2 L 1569 2081 L 0.5 2081 Z M 0.5 2 " clip-rule="nonzero"/></clipPath><clipPath id="721ebd9acd"><path d="M 59.289062 2.5625 L 1568.765625 529.78125 L 688.855469 3049.03125 L -820.617188 2521.808594 Z M 59.289062 2.5625 " clip-rule="nonzero"/></clipPath><clipPath id="8f4d6536bb"><path d="M 0.5 528 L 1568.921875 528 L 1568.921875 2079 L 0.5 2079 Z M 0.5 528 " clip-rule="nonzero"/></clipPath><clipPath id="7c5e716cdc"><path d="M 59.289062 0.5625 L 1568.765625 527.78125 L 688.855469 3047.03125 L -820.617188 2519.808594 Z M 59.289062 0.5625 " clip-rule="nonzero"/></clipPath><clipPath id="ece1d0bf27"><path d="M 1569.183594 527.929688 L 59.710938 0.707031 L -820.199219 2519.957031 L 689.277344 3047.175781 Z M 1569.183594 527.929688 " clip-rule="nonzero"/></clipPath><clipPath id="bc7160e73c"><rect x="0" width="1569" y="0" height="2079"/></clipPath><clipPath id="1e90c96804"><path d="M 0.5 537 L 1563 537 L 1563 2081 L 0.5 2081 Z M 0.5 537 " clip-rule="nonzero"/></clipPath><clipPath id="3c533dfb5e"><path d="M 1562.75 537.113281 L 1801.921875 1734.597656 L -196.761719 2133.792969 L -435.933594 936.304688 Z M 1562.75 537.113281 " clip-rule="nonzero"/></clipPath><clipPath id="e7221a0032"><path d="M 1562.75 537.113281 L 1801.921875 1734.597656 L -196.761719 2133.792969 L -435.933594 936.304688 Z M 1562.75 537.113281 " clip-rule="nonzero"/></clipPath><clipPath id="978b660287"><rect x="0" width="1804" y="0" height="2081"/></clipPath><clipPath id="63b122312d"><path d="M 0.5 0 L 1557 0 L 1557 2249 L 0.5 2249 Z M 0.5 0 " clip-rule="nonzero"/></clipPath><clipPath id="d9ea3bd08f"><path d="M -768.566406 2778.410156 L -2040.8125 1384.914062 L 284.449219 -738.019531 L 1556.695312 655.476562 Z M -768.566406 2778.410156 " clip-rule="nonzero"/></clipPath><clipPath id="71285b1783"><path d="M 0.5 0 L 1555 0 L 1555 1385 L 0.5 1385 Z M 0.5 0 " clip-rule="nonzero"/></clipPath><clipPath id="df0648dd99"><path d="M -768.566406 2778.410156 L -2040.8125 1384.914062 L 284.449219 -738.019531 L 1556.695312 655.476562 Z M -768.566406 2778.410156 " clip-rule="nonzero"/></clipPath><clipPath id="fffc91a008"><path d="M -2040.566406 1385.183594 L -768.320312 2778.675781 L 1556.9375 655.742188 L 284.695312 -737.75 Z M -2040.566406 1385.183594 " clip-rule="nonzero"/></clipPath><clipPath id="ed1d6b3b84"><rect x="0" width="1557" y="0" height="2249"/></clipPath></defs><g clip-path="url(#eab1eb55c3)"><path fill="#ffffff" d="M 0.5 0 L 2249.5 0 L 2249.5 2249 L 0.5 2249 Z M 0.5 0 " fill-opacity="1" fill-rule="nonzero"/></g><g clip-path="url(#6aafb1294e)"><g clip-path="url(#2275e7c120)"><g transform="matrix(1, 0, 0, 1, 0.000000000000000056, -0.00000000000012564)"><g clip-path="url(#bddbc7a453)"><g clip-path="url(#33cb7b6e4d)"><g clip-path="url(#4f3f3e3d9a)"><g clip-path="url(#f5a0eb2541)"><g clip-path="url(#69119ddf3f)"><path fill="#000000" d="M 368.542969 -692.71875 L 2317.058594 -124.710938 L 4265.570312 443.296875 C 4037.796875 1221.1875 3810.023438 1999.078125 3582.246094 2776.964844 C 2511.011719 1620.40625 1439.777344 463.84375 368.542969 -692.71875 " fill-opacity="1" fill-rule="nonzero"/></g></g></g></g></g></g></g></g><g clip-path="url(#9ac27c927b)"><g transform="matrix(1, 0, 0, 1, 263, 705)"><g clip-path="url(#ed6fb6cb94)"><g clip-path="url(#2e1420fbba)"><g clip-path="url(#842ca780ac)"><g transform="matrix(1, 0, 0, 1, 2, 1)"><g clip-path="url(#e8cd8e1c6c)"><g clip-path="url(#468972f75a)"><g clip-path="url(#1fcc0d8215)"><g clip-path="url(#54f2cdb8a2)"><path fill="#ee7706" d="M 1352.34375 0.847656 L 1829.40625 2257.261719 C 1378.714844 2351.988281 928.027344 2446.710938 477.335938 2541.429688 C 769.003906 1694.570312 1060.671875 847.710938 1352.34375 0.847656 " fill-opacity="1" fill-rule="nonzero"/></g></g></g></g></g></g></g><g clip-path="url(#f29c643924)"><g clip-path="url(#14b0716e64)"><g transform="matrix(1, 0, 0, 1, 334, 2)"><g clip-path="url(#4918b209f2)"><g clip-path="url(#aaa92d96df)"><g clip-path="url(#611273bb8d)"><g clip-path="url(#66b0913332)"><path fill="#ee7706" d="M 1013.136719 -0.230469 L 2583.097656 1689.214844 C 2245.363281 2002.308594 1907.628906 2315.40625 1569.890625 2628.5 C 1384.308594 1752.257812 1198.722656 876.011719 1013.136719 -0.230469 " fill-opacity="1" fill-rule="nonzero"/></g></g></g></g></g></g></g></g></g></g><g clip-path="url(#c516f7f9d8)"><g transform="matrix(1, 0, 0, 1, 0.000000000000000056, 168)"><g clip-path="url(#978b660287)"><g clip-path="url(#83920fe04f)"><g clip-path="url(#721ebd9acd)"><g transform="matrix(1, 0, 0, 1, 0.000000000000000056, 2)"><g clip-path="url(#bc7160e73c)"><g clip-path="url(#8f4d6536bb)"><g clip-path="url(#7c5e716cdc)"><g clip-path="url(#ece1d0bf27)"><path fill="#bb1620" d="M 1569.160156 528.1875 L 1128.828125 1787.761719 L 688.496094 3047.332031 C 185.667969 2870.875 -317.160156 2694.414062 -819.988281 2517.953125 C -23.605469 1854.699219 772.777344 1191.445312 1569.160156 528.1875 " fill-opacity="1" fill-rule="nonzero"/></g></g></g></g></g></g></g><g clip-path="url(#1e90c96804)"><g clip-path="url(#3c533dfb5e)"><g clip-path="url(#e7221a0032)"><path fill="#bb1620" d="M 1562.535156 537.109375 L -435.292969 936.710938 C -355.019531 1335.554688 -274.746094 1734.398438 -194.46875 2133.242188 C 391.199219 1601.195312 976.867188 1069.152344 1562.535156 537.109375 " fill-opacity="1" fill-rule="nonzero"/></g></g></g></g></g></g><g clip-path="url(#63b122312d)"><g clip-path="url(#d9ea3bd08f)"><g transform="matrix(1, 0, 0, 1, 0.000000000000000056, -0.00000000000012564)"><g clip-path="url(#ed1d6b3b84)"><g clip-path="url(#71285b1783)"><g clip-path="url(#df0648dd99)"><g clip-path="url(#fffc91a008)"><path fill="#f1caa4" d="M -2040.398438 1384.929688 L 284.914062 -736.859375 C 708.050781 -272.019531 1131.1875 192.824219 1554.320312 657.664062 C 356.082031 900.085938 -842.15625 1142.507812 -2040.398438 1384.929688 " fill-opacity="1" fill-rule="nonzero"/></g></g></g></g></g></g></g></svg>